<svg xmlns="http://www.w3.org/2000/svg" xml:space="preserve" width="604.0933" height="567.8" viewBox="0 0 604.0933 567.8">
  <path fill="#eee" d="M192.112 557.0839h138.8707V449.9745H192.112Z"/>
  <path fill="#e3e3e2" d="M296.1907 556.3292c-.192 0-.348-23.8761-.348-53.3213 0-29.4548.156-53.324.348-53.324.1906 0 .3466 23.8692.3466 53.324 0 29.4452-.156 53.3213-.3466 53.3213"/>
  <path fill="#fcfdfd" d="M308.5627 544.7401h10.6453v-12.0349h-10.6453Z"/>
  <path fill="#e3e3e2" d="M234.4773 450.2505v22.8547h15.7747v-22.8547h-15.7747M234.4773 533.9104v22.8563h15.7747v-22.8563h-15.7747"/>
  <path fill="#eee" d="M407.8587 558.1734h175.1V423.1201h-175.1Z"/>
  <path fill="#e3e3e2" d="M539.088 557.2198c-.192 0-.3467-30.1037-.3467-67.2291 0-37.1386.1547-67.236.3467-67.236s.3467 30.0974.3467 67.236c0 37.1254-.1547 67.229-.3467 67.229"/>
  <path fill="#fcfdfd" d="M568.112 542.6079h-13.424v-15.1746h13.424v15.1746"/>
  <path fill="#e3e3e2" d="M461.276 452.2855h19.889v-28.8172h-19.889ZM461.276 557.7719h19.889V528.953h-19.889Z"/>
  <path fill="#eee" d="M78.0453 427.0933c7.087-3.656 15.4318-4.132 23.3-2.8306 4.2266.6973 8.6334 1.9613 11.5094 5.1373 2.876 3.1747 3.4213 8.7625.1188 11.4907-1.9662 1.6238-4.7079 1.8708-7.2574 1.841-6.1593-.0718-12.9932-1.1572-17.9134 2.5495-2.8079 2.1136-4.6762 5.6292-8.033 6.6683-3.2833 1.0188-6.9894-.9203-8.7306-3.8844-1.7407-2.9624-1.7995-6.6678-.9875-10.0088 0 0 .8547-7.2803 7.9937-10.963M61.8088 395.7493c4.3333 6.1894 12.7557 4.14 16.6615.3614 3.9048-3.7774 5.5552-9.252 7.0578-14.4734 3.4328-11.9306 6.8948-24.4453 4.3416-36.5933-.7634-3.6333-2.1208-7.256-4.6738-9.9493-2.5522-2.696-6.4766-4.2987-10.0652-3.3507-4.2463 1.1227-6.8859 5.2813-8.7932 9.2387-5.6078 11.6293-8.576 24.5226-8.6203 37.4346-.0213 6.0294.6896 12.3547 4.0916 17.332M49.9084 404.6307c4.7052-5.584 5.5984-13.7294 3.5047-20.7254-2.0938-6.996-6.8235-12.9466-12.2751-17.8053-6.3916-5.6973-13.9041-10.1293-21.9812-12.9693-3.1781-1.1174-6.5313-1.9987-9.8844-1.68-3.3542.3213-6.7318 2.036-8.2964 5.02-2.313 4.412-.0953 9.7626 2.3032 14.1293a167.6402 167.6402 0 0 0 14.437 21.984c4.3275 5.58 9.2849 11.0813 15.8797 13.6027 6.5942 2.5226 13.4453 2.2253 16.9405-2.348"/>
  <path fill="#e3e3e2" d="M61.515 489.1136c.0814.0052.2131-.9975.3918-2.812.2-2.047.45-4.6177.7473-7.675.3579-3.2307.8298-7.0735 1.7266-11.2589.8944-4.1745 2.2944-8.6984 4.0922-13.2865 1.8615-4.5624 4.1318-8.7067 6.785-12.0239 2.6342-3.3308 5.6978-5.7401 8.5781-7.1308 2.8708-1.4185 5.4447-1.9932 7.2239-2.2492 1.7942-.184 2.7994-.3253 2.8-.4053.001-.08-1.0058-.0933-2.8495-.044-1.826.1213-4.5073.5853-7.5323 1.96-3.0354 1.3464-6.2854 3.7948-9.0489 7.1948-2.786 3.3839-5.1385 7.6213-7.0333 12.2641-1.8287 4.6692-3.2084 9.2395-4.0626 13.5052-.8521 4.2572-1.2421 8.1427-1.4969 11.4a151.6382 151.6382 0 0 0-.3796 7.7224c-.0412 1.8239-.0204 2.8348.0583 2.8391"/>
  <path fill="#e3e3e2" d="M62.0443 483.2093c.0401-.0025.0645-.452.0754-1.3066-.0025-.9803-.0057-2.2147-.0098-3.7319-.0088-3.2375-.0078-7.9255.1661-13.712.2865-11.5733 1.2833-24.0307 3.2079-41.5935 1.8229-16.5146 4.2692-35.7333 6.8516-48.228.5536-2.8426 1.1114-5.4 1.6358-7.6386.5011-2.244.9276-4.1787 1.3407-5.7454.3541-1.4746.6427-2.6746.8724-3.6266.187-.8334.2661-1.2774.2281-1.288-.0385-.0107-.1937.4106-.4541 1.224-.2844.9386-.6428 2.1213-1.0833 3.576-.4803 1.5506-.9724 3.472-1.535 5.708-.586 2.2306-1.201 4.7813-1.8073 7.6186-2.5547 11.3227-5.2593 27.1467-7.2025 44.752-1.9292 17.5988-2.7986 33.6212-2.8751 45.2254-.0692 5.8026.0547 10.4985.2027 13.7401.0932 1.5156.1681 2.7505.2276 3.7292.065.852.1186 1.2984.1588 1.2973"/>
  <path fill="#e3e3e2" d="M62.1219 452.3027c.0802-.0043.0661-1.3882-.0271-3.8986-.1443-2.5057-.4885-6.127-1.1943-10.5629-.7478-4.4239-1.7932-9.6772-3.4349-15.3865-.7115-2.6107-2.3833-8.864-6.4344-18.208-5.338-12.6614-12.589-23.0134-18.8968-29.424-1.4803-1.7027-3.1276-2.9307-4.4453-4.1334-.6823-.5773-1.2855-1.1506-1.899-1.6066-.6172-.4254-1.1922-.8214-1.725-1.1894-2.076-1.42-3.2391-2.1693-3.2818-2.1013-.1864.2547 4.6506 3.1 10.7574 9.5973 6.0828 6.484 13.1312 16.764 18.4249 29.3187 2.9521 6.8093 5.0104 12.884 6.4713 18.04 1.6876 5.6533 2.8079 10.8547 3.6548 15.2359.8047 4.3896 1.2708 7.9734 1.552 10.4573.2318 2.4853.398 3.864.4782 3.8615"/>
  <path fill="#eee" d="m30.1807 502.1255 3.0969 42.4276h54.5057l3.097-42.4276H30.1807M24.9156 485.4027v16.7228h72.4683v-16.7228H24.9156"/>
  <path fill="#e3e3e2" d="M24.9156 542.9307v4.6344h71.2708v-4.6344H24.9156"/>
  <path fill="#e3e3e2" d="m31.6584 555.2104-3.3376-8.1583h65.2693l-3.8942 8.1583H31.6584"/>
  <path fill="#f8f8f9" d="M89.8677 515.9932c.0126.0084-.074.1417-.2537.3896-.2161.2855-.4843.6412-.8145 1.0787-.774.9906-1.837 2.3521-3.175 4.064l-.1412.1813-.1369-.1896c-1.9953-2.7599-4.662-6.4479-7.8005-10.789h.4489a38295.0165 38295.0165 0 0 0-7.6803 10.876l-.2405.3395-.2699-.3213c-2.8348-3.3719-5.9129-7.0333-9.1088-10.836l.5255-.0077c-.1583.2-.329.4145-.5015.6306-2.8245 3.5412-5.5584 6.9694-8.1442 10.2095l-.2715.341-.2505-.353c-2.7651-3.9136-5.3484-7.5683-7.6838-10.8735l.4463.0214c-3.7864 4.3146-6.9979 7.9734-9.4625 10.7828l-.1682.1906-.1281-.2161c-1.2475-2.0948-2.2423-3.7667-2.9636-4.9776-.3093-.5412-.5599-.977-.7599-1.325-.1682-.3042-.2469-.464-.2322-.4734.014-.0095.1224.1348.3177.4213.2208.3348.4979.7547.841 1.2744.7563 1.1896 1.8006 2.8308 3.11 4.888l-.2953-.0238c2.425-2.8438 5.5848-6.5464 9.311-10.9131l.2348-.276.2125.2959c2.3568 3.2905 4.9636 6.929 7.7527 10.8238l-.5215-.0129c2.5792-3.247 5.3063-6.6803 8.125-10.2272.172-.2145.3427-.4301.5011-.629l.2594-.3257.2661.3188c3.187 3.8094 6.2563 7.4787 9.0828 10.8588l-.5099.0188c2.8027-3.9084 5.4136-7.551 7.7568-10.8202l.2276-.3158.2219.3158c3.0724 4.3894 5.6823 8.1176 7.6359 10.9082l-.2776-.0093c1.3917-1.6683 2.498-2.9948 3.3032-3.9599.3588-.4152.65-.7521.8849-1.0245.2036-.2276.3145-.3396.3265-.3292M91.639 501.8453c0 .188-13.6578.3402-30.501.3402-16.8495 0-30.5036-.1522-30.5036-.3402 0-.1865 13.6541-.3385 30.5036-.3385 16.8432 0 30.501.152 30.501.3385"/>
  <path fill="#e3e3e2" d="m474.288 76.3347-11.1733.06-.2987-55.6 11.1733-.0587.2987 55.5987"/>
  <path fill="#eee" d="m395.116 51.5747-28.9347.1546-.1653-30.6933 28.936-.1547.164 30.6934"/>
  <path fill="#f8f8f9" d="m423.9147 51.42-28.936.156-.1654-30.6947 28.9374-.1546.164 30.6933"/>
  <path fill="#e3e3e2" d="M366.0613 29.512c19.2294.16 38.5067.048 57.7347-.2653.396-.0067.3933-.612-.004-.6147-19.2293-.1053-38.5067-.012-57.7333.3533-.3387.0067-.3374.524.0026.5267"/>
  <path fill="#eee" d="m400.68 76.076-52.5707.2813-.1333-25.0133 52.5693-.2813.1347 25.0133"/>
  <path fill="#f8f8f9" d="m453.0027 75.796-52.572.2827-.1334-25.0147 52.5707-.2813.1347 25.0133"/>
  <path fill="#e3e3e2" d="M348.0133 58.3013c34.9227.3947 69.9694.0414 104.8934-.5186.3946-.0067.3933-.612-.004-.6134-34.9267-.1853-69.976-.164-104.892.604-.34.008-.3374.524.0026.528M532.0293 85.32h-203.676v-8.9627h203.676V85.32"/>
  <path fill="#e3e3e2" d="M369.968 111.2453h-8.2693V80.6667h8.2693v30.5786M493.3947 111.2453h-8.268V80.6667h8.268v30.5786"/>
  <path fill="#eee" d="m485.304 76.4707-11.1733.06L473.72.0627l11.1733-.06.4107 76.468"/>
  <path fill="#f8f8f9" d="m502.6853 76.2053-17.3626.0934-.332-61.968 17.3626-.0934.332 61.968"/>
  <path fill="#e3e3e2" d="M502.236 26.176c0 .1653-3.8867.3-8.6813.3-4.796 0-8.6814-.1347-8.6814-.3 0-.1667 3.8854-.3013 8.6814-.3013 4.7946 0 8.6813.1346 8.6813.3013M502.236 23.572c0 .1667-3.8867.3013-8.6813.3013-4.796 0-8.6814-.1346-8.6814-.3013 0-.1653 3.8854-.3 8.6814-.3 4.7946 0 8.6813.1347 8.6813.3M502.236 66.8827c0 .1666-3.8867.3-8.6813.3-4.796 0-8.6814-.1334-8.6814-.3 0-.1667 3.8854-.3014 8.6814-.3014 4.7946 0 8.6813.1347 8.6813.3014M502.236 64.2787c0 .1666-3.8867.3013-8.6813.3013-4.796 0-8.6814-.1347-8.6814-.3013 0-.1654 3.8854-.3 8.6814-.3 4.7946 0 8.6813.1346 8.6813.3M493.8347 58.5987c-.1667 0-.3014-6.252-.3014-13.9627 0-7.712.1347-13.964.3014-13.964.1653 0 .3013 6.252.3013 13.964 0 7.7107-.136 13.9627-.3013 13.9627"/>
  <path fill="#eee" d="M521.3227 76.228h-18.9V29.4547h18.9V76.228"/>
  <path fill="#e3e3e2" d="M482.3547 13.0573c0 1.7747-1.4374 3.212-3.212 3.212-1.7747 0-3.212-1.4373-3.212-3.212 0-1.7733 1.4373-3.2106 3.212-3.2106 1.7746 0 3.212 1.4373 3.212 3.2106M480.136 67.3813h-1.9867V21.8907h1.9867v45.4906"/>
  <path fill="#1d2a30" d="M588.9733 557.4427c0 .1922-128.152.3464-286.196.3464-158.1 0-286.2232-.1542-286.2232-.3464 0-.1922 128.1232-.3469 286.2232-.3469 158.044 0 286.196.1547 286.196.347M168.3747 68.108c6.2586 7.5947 9.7306 17.436 9.624 27.2773-.0614 5.6227-1.0974 11.8254 2.1746 16.4 2.4827 3.472 7.0107 5.2094 9.028 8.972 2.4254 4.524.3574 10.2374 1.8507 15.1494 2.116 6.964 10.2707 9.8746 15.1067 15.3133 4.1933 4.716 5.7453 11.6173 4.056 17.6987-1.688 6.08-6.5374 11.1693-12.5014 13.232-3.2026 1.108-6.8626 1.3466-9.896-.1654-3.2706-1.6293-5.2906-4.9746-6.9293-8.2413-3.22-6.42-31.4493-41.1627-33.048-48.1653M147.84 59.9173c-11.5427-1.8573-22.6373 5.8067-27.5004 16.4374-4.8636 10.6333-4.997 22.724-5.3557 34.412-.3588 11.6853-1.1792 23.8853-7.1454 33.9413-3.7858 6.3813-9.6489 11.98-10.5688 19.3427-.8228 6.5933 2.5896 13.2333 1.4568 19.78-.9864 5.7-5.3301 10.6586-5.1582 16.4413.2072 6.956 7.362 12.1973 14.3186 12.3827 6.9563.1866 13.4558-3.4587 18.9095-7.78 8.849-7.0134 16.0223-16.128 20.7583-26.3774"/>
  <path fill="#f9ad95" d="M128.8495 87.4453c-1.5244-12.1733 7.2812-23.2986 19.6425-24.476 11.6507-1.1106 22.0053 7.564 23.752 19.1374 1.5307 10.144 2.8453 20.3853 2.7987 24.104-.1427 11.216-6.7054 15.5826-9.3654 16.8933-.6066.2987-2.2813.6387-2.9506.7347l-.0627.0866 2.4907 12.8747c1.128 8.436-3.58 15.9587-12.0014 17.1867-8.4506 1.232-15.056-5.2467-16.3453-13.688l-7.9585-52.8534"/>
  <path fill="#1d2a30" d="M169.9493 87.0187c-.1853.2626-1.6666-.5307-3.564-.2494-1.9.2547-3.1506 1.4334-3.3906 1.2307-.116-.088.0466-.536.5893-1.0653.532-.5267 1.4893-1.1027 2.672-1.2707 1.184-.1653 2.2427.124 2.8787.4867.6493.3626.908.7506.8146.868M153.0667 91.1213c-.1854.2614-1.668-.532-3.564-.2506-1.9.2546-3.1507 1.4346-3.3907 1.232-.116-.088.044-.536.588-1.0667.5333-.5267 1.4893-1.1027 2.672-1.2707 1.184-.1653 2.2427.1254 2.88.4867.6467.364.9067.7507.8147.8693M159.988 101.2987c-.024-.1067 1.1267-.4827 3.0027-1.0054.4773-.1213.9226-.284.956-.6266.0626-.3667-.216-.86-.5334-1.3907-.6266-1.1067-1.2826-2.2667-1.972-3.4813-2.7573-4.9667-4.828-9.0787-4.6266-9.188.2-.1094 2.5986 3.828 5.356 8.7933.6666 1.2267 1.3053 2.3947 1.9146 3.5133.2627.524.6694 1.1027.528 1.8654-.0773.3826-.3946.696-.6933.8266-.2973.14-.5693.184-.8067.2334-1.9093.3853-3.1026.5666-3.1253.46"/>
  <path fill="#f6865e" d="M162.6493 123.8493s-7.2426 1.6694-17.2146-2.504c0 0 4.3053 9.268 17.8853 5.9734l-.6707-3.4694"/>
  <path fill="#1d2a30" d="M152.112 86.148c-.112.5427-2.044.5747-4.232 1.168-2.2.5493-3.9013 1.4627-4.264 1.044-.1653-.2027.0773-.7347.7307-1.3413.648-.6027 1.7266-1.2454 3.0426-1.588 1.316-.3414 2.5707-.308 3.4307-.096.8653.2106 1.336.556 1.292.8133M168.3933 82.812c-.272.48-1.6453.224-3.2213.432-1.5827.152-2.8627.7133-3.2347.3067-.1653-.1987-.0186-.6627.504-1.1547.5134-.4907 1.424-.9627 2.5094-1.088 1.0853-.1227 2.08.132 2.6906.4933.62.3627.868.78.752 1.0107M148.952 93.572c.1307.824.936 1.3947 1.7987 1.2733.8626-.1186 1.4573-.8826 1.3266-1.708-.1293-.824-.9346-1.3946-1.7973-1.2746-.8627.12-1.4573.8853-1.328 1.7093M165.7627 89.936c.1293.824.9346 1.3933 1.7973 1.2733.8613-.12 1.4573-.884 1.3267-1.708-.1294-.824-.936-1.3946-1.7974-1.2746-.8626.12-1.4573.8853-1.3266 1.7093"/>
  <path fill="#f6865e" d="M162.9747 104.9947c-1.2214-.3534-2.2734.2653-2.7694 1.1506-.496.8867-.3773 2.0974.336 2.8187.7134.724 1.984.8373 2.7707.1973.5347-.4346.8027-1.1293.8707-1.8133.064-.6333-.04-1.3107-.4307-1.8133-.3907-.5014-1.1133-.772-1.6947-.5134"/>
  <path fill="#1d2a30" d="M170.764 73.032c-.8693-4.2187-3.7733-7.8173-7.3093-10.276-3.004-2.0893-6.5574-3.4707-10.2134-3.5827-3.6573-.112-7.4053 1.1174-10.048 3.6494-1.9533 1.8706-2.9533 4.52-3.0453 7.2226l.2133-1.8653c-.5493 1.532-.548 3.1933.0227 4.6987l.0027.0093-.0014-.0067c.3094.816.68 1.6334 1.008 2.452.9334 2.3307 2.7414 4.2974 4.9854 5.424 1.0333.5187 2.1786.8667 3.3333.812 1.1547-.0546 2.32-.552 3.0213-1.472 1.0014-1.3133.8854-3.1346.7227-4.7786.992 1.5493 2.0453 3.156 3.6387 4.0746 1.5946.916 3.8986.884 5.02-.5733 1.0866-1.412.6573-3.44.028-5.1053 1.0186 1.5533 2.4786 2.8146 4.164 3.5973.932.4333 2.0306.7187 2.976.3107.8-.3467 1.3386-1.148 1.544-1.996.204-.848.1133-1.7414-.0627-2.5947"/>
  <path fill="#365462" d="M161.1293 76.5147c-.12.004-.1-1.5814-.6133-4.04-.5147-2.4174-1.7387-5.8334-4.604-8.3587-1.412-1.2467-3.036-2.1093-4.6133-2.4907-1.58-.3906-3.084-.344-4.2934-.108-2.452.4987-3.64 1.6627-3.7133 1.54-.024-.0266.232-.3386.8187-.7626.5826-.424 1.5226-.9334 2.7866-1.256 1.2614-.312 2.8534-.4174 4.548-.036 1.696.3733 3.436 1.276 4.9267 2.5933 3.0293 2.672 4.2267 6.2947 4.6267 8.7867.204 1.2706.2493 2.3093.24 3.024-.0094.7146-.0654 1.108-.1094 1.108"/>
  <path fill="#f9ad95" d="m283.9293 231.9693-51.268-20.324s-26.264-34.4413-25.716-35.1093l-18.4346 20.1893 26.7946 36.2734 62.088 14.5346 29.4067.2374c-2.2747-11.3107-22.8707-15.8014-22.8707-15.8014"/>
  <path fill="#f03658" d="m172.1867 133.7187-6.9814-2.7067-30.16 3.8253v5.328l-.864.1067s-9.3682 1.7027-18.4761 7.1707c-11.0287 6.6213-16.7604 19.392-14.7177 32.0933 1.2265 7.6267 3.6042 16.8973 8.1844 22.2547 8.7593 10.2466 16.7593-2.4174 16.7593-2.4174s5.498 12.5414 5.1824 18.472c-.2652 4.9667-2.462 15.316-3.1683 18.548-.1193.5454.2386 1.0707.787 1.172l63.625 11.7627.3107-15.5507-2.024-63.9626-2.8067-24.8414s.088-11.868-15.6506-11.2546"/>
  <path fill="#f03658" d="m186.8613 140.84 24.2587 35.0507-19.5307 23.792Z"/>
  <path fill="#1d2a30" d="M192.0613 214.6013c-.048-.0013-.08-.8066-.0946-2.2626-.02-1.572-.0454-3.648-.0774-6.1587-.1253-5.1947-.4186-12.3773-1.4533-20.236-1.0053-7.8627-2.5333-14.888-3.7027-19.9533-.5746-2.444-1.0506-4.4667-1.4093-5.996-.3333-1.4174-.4947-2.208-.448-2.22.0453-.012.296.7533.7093 2.1506.4147 1.396.9774 3.4267 1.6254 5.9494 1.2933 5.0426 2.904 12.08 3.9133 19.9813 1.04 7.8933 1.256 15.112 1.256 20.3187-.0253 2.6066-.0627 4.7133-.144 6.1693-.0667 1.4547-.1267 2.2587-.1747 2.2573"/>
  <path fill="#fcfdfd" d="M132.3677 161.3067c-.0037.112-1.8412.0893-4.7948.2466-2.9532.156-7.0245.56-11.4401 1.4707-4.415.9187-8.313 2.164-11.0844 3.196-2.7733 1.028-4.45 1.7787-4.4979 1.6773-.0213-.044.3766-.276 1.1156-.6613.7355-.3907 1.8287-.8987 3.2032-1.4733 2.7447-1.156 6.6614-2.4907 11.1228-3.4187 4.461-.92 8.586-1.2507 11.5642-1.2813 1.4896-.0174 2.6948.0146 3.5249.0813.8313.0587 1.2881.1147 1.2865.1627M188.5613 177.3547c.0134.088-1.136.3666-3.0253.656-1.8867.2906-4.516.5693-7.4307.6706-2.916.0987-5.5586 0-7.4613-.16-1.904-.16-3.0693-.3586-3.0613-.4493.008-.1013 1.1866-.0747 3.0866-.0413 1.8987.0346 4.52.0546 7.412-.0427 2.892-.1013 5.5054-.3 7.3974-.464 1.892-.164 3.0666-.2707 3.0826-.1693M199.6987 161.4907c.1226.128-2.0254 2.2746-5.2054 4.2093-3.172 1.9507-6.06 2.8853-6.1186 2.716-.076-.1893 2.6453-1.3933 5.756-3.308 3.12-1.8973 5.432-3.7733 5.568-3.6173M189.8933 145.2387c.1187.1173-2.7413 2.6906-7.0653 4.504-4.312 1.844-8.1493 2.108-8.1507 1.94-.0373-.2134 3.6734-.7774 7.88-2.58 4.2214-1.768 7.208-4.04 7.336-3.864M191.2173 204.4893c.0187.044-.4306.2774-1.26.6614-.8266.392-2.0533.8946-3.5906 1.4586-3.0694 1.1294-7.4387 2.3894-12.3854 3.1547-4.9493.7547-9.496.864-12.764.7067-1.6346-.0747-2.9546-.1867-3.8613-.312-.9067-.1174-1.4053-.2054-1.4-.2534.0107-.1133 2.0227.0494 5.2733.076 3.2507.0294 7.7467-.156 12.6467-.904 4.8987-.7573 9.2413-1.9293 12.332-2.9333 3.0947-1.0013 4.964-1.76 5.0093-1.6547M191.7107 222.5667c.0106.0213-.1854.132-.568.3213-.46.2187-1.016.4827-1.6894.8027-1.4666.696-3.6386 1.5986-6.3586 2.6146-2.716 1.028-6.012 2.0907-9.7174 3.1094-3.7133.9813-7.844 1.8973-12.224 2.5906-4.388.6667-8.6013 1.0454-12.4386 1.236-3.84.152-7.3027.1374-10.204-.02-2.9-.144-5.243-.3466-6.8519-.5653-.737-.1013-1.3484-.184-1.8515-.252-.4224-.0653-.6428-.1107-.6396-.1347.0031-.024.2282-.024.6552-.004.5063.0334 1.1203.0734 1.862.1214 1.6124.136 3.9538.2626 6.8444.3453 2.8907.0933 6.336.056 10.1534-.1307 3.816-.2226 8.0013-.6186 12.364-1.2813 4.356-.6893 8.464-1.5813 12.168-2.524 3.6933-.9787 6.988-1.988 9.7146-2.952 2.7294-.9547 4.9227-1.7853 6.4187-2.4027.692-.2706 1.2653-.496 1.7373-.68.4-.1493.616-.216.6254-.1946"/>
  <path fill="#f03658" d="m74.7203 506.0093-7.2067 32.5787-13.1292 24.1224c-.9464 1.739-.2219 3.9151 1.5765 4.7401 1.0074.463 2.1662.4146 3.1266-.14 6.1078-3.5303 28.5141-16.6241 28.9084-19.037.4562-2.7964 9.8822-33.8599 9.8822-33.8599l-23.1578-8.4043"/>
  <path fill="#fff" d="M57.464 567.8a3.403 3.403 0 0 1-1.503-.3495c.4567.211.9453.3146 1.4317.3146.586 0 1.1698-.1516 1.6948-.4547 2.9828-1.724 9.8532-5.7291 16.1485-9.6573h.0233c-4.0374 2.5308-9.2953 5.7255-16.0744 9.6813a3.41 3.41 0 0 1-1.7209.4656m18.4475-10.5693c1.0874-.6828 2.1541-1.3599 3.174-2.0203h.0176a350.523 350.523 0 0 1-3.1708 2.0203h-.0208"/>
  <path fill="#f6f7f7" d="M79.103 555.2104h-.0175c3.99-2.5839 7.2781-4.901 8.4525-6.2077a5.0913 5.0913 0 0 1-1.3224 1.4052c-1.2145.8776-3.4339 2.4281-7.1125 4.8025M88.2953 547.0521h-.0182c.0734-.2838.1584-.6068.2546-.9657h.0011l-.2375.9657M88.0797 547.8615c.049-.2178.1156-.4896.1974-.8094h.0182l-.1.4067a5.3076 5.3076 0 0 1-.1156.4027"/>
  <path fill="#a5adad" d="M75.2593 557.6531h-.0233c.226-.1411.4515-.2823.6755-.4224h.0208c-.2203.1386-.4454.2797-.673.4224"/>
  <path fill="#f9a8bf" d="M57.3927 567.7651c-.4864 0-.975-.1036-1.4318-.3146l32.5719-21.3641c-.0973.359-.1823.6819-.2557.9657-.0818.3198-.1484.5916-.1974.8094a5.1908 5.1908 0 0 1-.5417 1.1412c-1.1744 1.3066-4.4625 3.6238-8.4525 6.2077-1.0199.6604-2.0866 1.3375-3.174 2.0203-.224.1401-.4495.2813-.6755.4224-6.2953 3.9282-13.1657 7.9334-16.1485 9.6573a3.3836 3.3836 0 0 1-1.6948.4547M85.1281 537.7948c-.8046 0-1.6156-.5308-1.875-1.3041-.3015-.9016.175-1.9771 1.0146-2.4095l-.0021.0016c.2245-.1495.4896-.2161.7656-.2161.7641 0 1.6141.5093 1.9287 1.1864.4281.9214-.2943 2.2964-1.25 2.6417-.1886.0677-.3848.1-.5818.1"/>
  <path fill="#1d2a30" d="M66.8407 555.1104c-.2052.0453-.5199-1.8317-2.2235-3.2183-1.6615-1.4364-3.563-1.4176-3.5552-1.627-.0084-.088.4635-.2386 1.2479-.1583.7786.0719 1.8485.4463 2.7786 1.2239.9271.7797 1.4834 1.7693 1.6907 2.5224.215.7589.1479 1.251.0615 1.2573M63.4683 558.8839c-.1891.1026-.9704-1.2079-2.5287-2.0985-1.5385-.9255-3.062-.9693-3.0645-1.1828-.0527-.189 1.676-.4948 3.4353.552 1.7708 1.0256 2.348 2.6829 2.1579 2.7293M72.5016 550.6041c-.1896.1156-1.3823-1.903-3.6839-3.5014-2.277-1.6344-4.5781-2.083-4.5317-2.3-.01-.1866 2.5077-.0454 4.9541 1.7 2.4646 1.7213 3.4396 4.0478 3.2615 4.1014M75.5197 540.8839c-.1342.1708-1.741-1.0146-4.0494-1.6703-2.3006-.6881-4.2922-.5496-4.3124-.7683-.0511-.1786 2.0432-.6693 4.5172.064 2.479.7104 3.9837 2.248 3.8446 2.3746M77.877 531.3735c-.1463.1625-1.6811-1.359-4.1691-1.8495-2.4772-.547-4.4923.2317-4.5615.0255-.0365-.0812.4167-.4016 1.2703-.6511.8464-.249 2.1036-.3692 3.4406-.0916 1.3359.2812 2.44.8943 3.1162 1.464.6817.5677.9692 1.0437.9036 1.1027M74.2088 527.7265c-.0405-.0077-.0077-.4625.2568-1.2358.2641-.7678.7756-1.8667 1.7625-2.9719.4974-.5161 1.0522-1.2 2.061-1.4052.5026-.1057 1.1526.1437 1.4312.6667.2786.5104.2688 1.0718.1537 1.589-.5385 2.0479-2.7928 3.6042-5.1787 3.3318-2.3854-.3147-4.1641-2.1574-4.6484-4.1584-.0885-.5094-.089-1.1067.2968-1.5932.3823-.4922 1.0954-.5511 1.5402-.3563.9265.3803 1.3973 1.0828 1.862 1.6323.8962 1.1718 1.3557 2.2849 1.5937 3.06.238.7796.2645 1.2333.223 1.2426-.134.0574-.4282-1.7921-2.2209-3.976-.46-.5146-.9808-1.1521-1.6578-1.3854-.3298-.1162-.6532-.0531-.8402.1896-.188.2317-.2197.6541-.1333 1.0582.4203 1.6443 2.051 3.324 4.0713 3.56 2.0084.2484 3.988-1.1224 4.4366-2.7666.102-.3975.0942-.824-.0604-1.1131-.1527-.2844-.4558-.4281-.7844-.3787-.6932.0984-1.2828.676-1.7678 1.1574-1.9489 2.0437-2.2604 3.9213-2.3969 3.853"/>
  <path fill="#b2b1b0" d="M95.911 520.9307a2968.9262 2968.9262 0 0 1 1.9671-6.5171l-1.9672 6.517"/>
  <path fill="#a2a1a0" d="m72.913 514.1787.9667-4.6334.8406-3.536-1.8072 8.1694"/>
  <path fill="#bc283b" d="m95.911 520.9307-23.5902-3.9135.5923-2.8385 1.8072-8.1694 23.1578 8.4043s-.8104 2.6703-1.9677 6.517"/>
  <path fill="#f03658" d="m180.128 518.065-1.948 26.0334s25.8053 10.7214 25.9147 15.5667l-50.6107-1.9625 1.3707-40.6854 25.2733 1.0479"/>
  <path fill="#f9a8bf" d="M163.016 545.164c-.8853 0-1.7547-.6801-1.9213-1.5624-.176-.935.4426-1.935 1.3333-2.2495.1773-.0854.3693-.124.5667-.124.8213 0 1.7266.6703 1.968 1.4522.2986.9718-.604 2.2358-1.5974 2.4478a1.662 1.662 0 0 1-.3493.0359"/>
  <path fill="#fff" d="m204.0947 559.6651-49.6534-1.925 49.6534 1.925c-.0134-.561-.3707-1.2026-.9947-1.8969h.1813c.5067.4625.9694 1.1183.8134 1.897"/>
  <path fill="#a5adad" d="M203.2813 557.7682H203.1a10.4494 10.4494 0 0 0-.504-.5187c.1987.1265.4467.301.6853.5187"/>
  <path fill="#f9a8bf" d="m204.0947 559.6651-49.6534-1.925-.9573-.0375.2987-4.0958 48.4133 3.4146s.1653.0802.4.228c.1827.1761.3507.349.504.5188.624.6943.9813 1.336.9947 1.897"/>
  <path fill="#1d2a30" d="M179.0093 543.8719c-.0173.2469-1.2573.3109-2.504 1.0588-1.2666.7146-1.9346 1.7614-2.1586 1.6548-.2254-.0574.2-1.5215 1.7266-2.3991 1.516-.8916 2.9987-.5385 2.936-.3145M184.2333 546.2745c.048.24-1.0386.6187-1.92 1.6323-.9093.9864-1.1653 2.1077-1.4106 2.089-.2334.0297-.348-1.425.7693-2.664 1.108-1.2463 2.5653-1.2943 2.5613-1.0573M187.0013 552.7437c-.2266.0443-.5226-1.2036.1654-2.5333.6773-1.3333 1.864-1.8224 1.96-1.612.132.2084-.6467.9043-1.1947 2.0057-.572 1.0855-.684 2.124-.9307 2.1396M178.796 537.8896c-.112.2208-1.2333-.163-2.6333-.1213-1.4014.0104-2.5067.4385-2.628.2208-.136-.1839.9613-1.0574 2.612-1.0823 1.6493-.0375 2.7773.7943 2.6493.9828"/>
  <path fill="#b2b1b0" d="m154.5293 526.6693.168-5.3641.0134.0016-.1814 5.3625"/>
  <path fill="#bc283b" d="m179.3947 527.8615-24.8654-1.1922.1814-5.3625 25.024 1.9145-.34 4.6402"/>
  <path fill="#1d2a30" d="M179.092 532.6307c-.0013.1026-.984.2172-2.5347-.111-.772-.165-1.676-.4546-2.62-.917a11.9243 11.9243 0 0 1-1.4253-.8282c-.228-.1609-.4987-.3224-.7427-.6266-.264-.2676-.3933-.9291-.0626-1.3187.2746-.3797.74-.5292 1.1053-.524.3733.0027.672.0896.9453.1683a9.0368 9.0368 0 0 1 1.5547.6025c.9507.477 1.7147 1.0641 2.2773 1.624 1.1334 1.1317 1.4974 2.0719 1.412 2.1172-.116.076-.6573-.7188-1.8173-1.6625-.5787-.4708-1.3213-.9615-2.2107-1.3626a9.6365 9.6365 0 0 0-1.4386-.5057c-.5307-.161-.9854-.1812-1.1334.051-.0533.0891-.0613.124.0454.285.1106.151.3213.3.5453.4579.436.3093.8773.5812 1.3093.817.8667.4735 1.6987.8038 2.4147 1.0344 1.4333.4604 2.3853.5656 2.376.699"/>
  <path fill="#1d2a30" d="M178.756 532.9735c-.088.0333-.5453-.8694-.5733-2.4751-.012-.7943.108-1.7547.4533-2.761a8.2165 8.2165 0 0 1 .7053-1.5145c.316-.488.704-1.1442 1.6667-1.2161.5013 0 .9027.4077 1.0307.7479.1546.3494.176.6426.224.9385.0706.5948.0373 1.1745-.064 1.7068-.2014 1.0719-.6774 1.9505-1.184 2.577-1.04 1.2735-2.0827 1.5282-2.1 1.4443-.0774-.1281.8026-.5708 1.608-1.8025.3973-.6068.76-1.412.8946-2.3495.0667-.4677.0787-.9652.0094-1.4666-.0587-.5412-.2427-.983-.4467-.936-.252-.0136-.6947.3745-.9187.7958-.2773.4443-.5026.9-.6813 1.3495a9.1794 9.1794 0 0 0-.5893 2.511c-.1267 1.4811.1013 2.4182-.0347 2.4505M127.727 237.38s-8.0353.352-13.3306 27.7133C109.1021 292.456 68.4036 514.148 68.4036 514.148l29.475.2657 55.6054-210.7683-3.6947 217.2854 29.9454 2.2906s22.472-240.3813 22.684-254.368c.264-17.4373-9.7507-35.076-9.7507-35.076l-64.941 3.6027"/>
  <path fill="#365462" d="M168.24 235.0373c.188.0387-2.8707 15.6707-6.8307 34.9107-3.9613 19.2467-7.324 34.8133-7.512 34.7733-.188-.0386 2.8707-15.668 6.832-34.9133 3.96-19.24 7.324-34.8093 7.5107-34.7707M172.8373 238.9413c-.0506-.068.7987-.32 1.712.4974.4214.3933.8347 1.048.804 1.8853-.016.848-.6573 1.6733-1.5093 2.0227-.844.3653-1.8827.248-2.5013-.332-.6214-.5627-.8-1.3174-.788-1.892.0533-1.2254.8266-1.6574.8386-1.5734.0934.068-.4333.5707-.348 1.56.044.472.2507 1.0467.7107 1.4174.4453.3786 1.1693.452 1.8187.18.648-.2747 1.1013-.844 1.14-1.4267.0573-.588-.2107-1.1387-.5174-1.5-.6493-.7507-1.376-.7253-1.36-.8387M171.56 249.776c-.0187-.0827.8293.028 1.292 1.1107.204.5106.2973 1.2506-.0827 1.9626-.372.728-1.2853 1.1587-2.164 1.0814-.8813-.0587-1.7186-.6267-1.972-1.404-.2653-.7627-.0586-1.4787.2227-1.952.624-.996 1.4787-.976 1.448-.896.0427.1053-.628.2693-1.0147 1.1266-.18.4094-.2746.98-.06 1.4907.196.5107.768.8893 1.4294.9427.6613.0493 1.284-.236 1.5573-.7094.2907-.472.2867-1.0506.172-1.4826-.2493-.9067-.8867-1.1734-.828-1.2707M143.3133 239.216c.04.012-.0653.5053-.352 1.3693-.2826.8654-.7813 2.092-1.5533 3.5307-1.52 2.8707-4.3547 6.572-8.5533 9.3373-4.199 2.768-8.7192 3.9134-11.9563 4.1787-1.627.1427-2.95.116-3.8567.036-.9068-.0787-1.401-.176-1.3969-.2187.0063-.1293 2.0136.0974 5.2-.3053 3.1672-.3853 7.5427-1.5773 11.6281-4.2693 4.0844-2.692 6.9058-6.2414 8.5071-9 1.628-2.7694 2.2107-4.704 2.3333-4.6587M200.6653 258.6627c-.028.0386-.34-.152-.884-.5334-.5533-.3693-1.292-.992-2.1386-1.8293-1.6974-1.664-3.6987-4.3707-5.0227-7.7827-1.3093-3.4173-1.6413-6.768-1.4987-9.1413.0654-1.188.1947-2.1467.356-2.7907.148-.648.252-.9986.2987-.9893.1253.0227-.1587 1.46-.164 3.792-.0133 2.3267.3853 5.56 1.656 8.88 1.2867 3.3133 3.16 5.9787 4.732 7.6933 1.568 1.7254 2.7427 2.6 2.6653 2.7014"/>
  <path fill="#f9ad95" d="m116.0063 184.6493 13.0958.724c.8276 4.2454 3.7026 10.736 3.7026 10.736 10.5406-18.2973 18.714-42.812 20.7433-52.664a65.9225 65.9225 0 0 0-1.0827-3.2893c-.504-1.4053-.072-4.064.1654-5.5413.3546-2.1934.968-5.1454 1.152-6.5107.5613-4.164 1.232-4.8173 2.684-4.3467 1.976.64-.8094 11.692.8093 11.932.8707.128 1.9333-3.6573 2.2427-6.764.308-3.1066 1.7133-12.6626 2.74-13.3 1.5053-.9333 2.8173.544 2.4373 3.6374-.3853 3.1306-.8707 12.468.772 12.5946 1.6173.124 2.9747-15.7186 2.9747-15.7186s-.2547-3.448 1.6453-3.3654c3.4293.1494.7493 16.852.456 18.4347-.2053 1.1 1.576 1.3013 1.7333.108.1614-1.2307.988-15.844 4.4787-15.7267 2.68.0907-2.0747 13.764-.5707 16.9347 1.504 3.168 2.5494-10.7667 5.108-10.5747.952.072 1.656.2587-.0946 8.144-.94 4.2387-3.7027 12.0307-6.1174 18.4827-4.0533 21.8667-21.8453 91.8173-49.7396 79.012-15.6084-7.164-22.8917-42.6387-22.8917-42.6387l13.5563-.3"/>
  <path fill="#f6865e" d="M175.0827 148.588c-.0147-.0053.0306-.168.132-.4787.12-.3533.2746-.8066.4666-1.376.436-1.2613 1.0467-3.028 1.8254-5.2786.7773-2.296 1.732-5.1067 2.6813-8.4094.4867-1.6493.88-3.436 1.248-5.352.1773-.956.3587-1.9413.4707-2.9533.0466-.5027.1-1.02.0693-1.516-.036-.52-.116-.9453-.5267-.952-.424-.1147-.7093.236-1 .6773-.268.444-.476.956-.6626 1.4787-.3734 1.0493-.6654 2.168-.9547 3.312-.2907 1.144-.5587 2.32-.908 3.5187-.2093.6053-.3027 1.1893-.7987 1.84-.0933.0786-.1773.1826-.3653.22-.2053.052-.3587-.0267-.5013-.1134-.192-.1706-.284-.3426-.368-.5026a3.4814 3.4814 0 0 1-.2814-1.0174c-.2386-2.676.3707-5.2626.788-7.948.2294-1.3386.472-2.6933.648-4.0653.0854-.684.1574-1.376.1654-2.0573.0253-.632-.0854-1.4854-.3627-1.6067-.3413-.128-.9587.2587-1.2853.824-.3667.556-.64 1.216-.872 1.8893-.4627 1.3574-.7654 2.8027-1.0254 4.2667-.2546 1.468-.4533 2.964-.6173 4.48-.0733.7587-.148 1.5227-.2227 2.2893l-.1013 1.1574c-.028.3133-.028.968-.5293 1.344-.464.348-1.0827.384-1.5774.0626-.248-.16-.4413-.4573-.4786-.7586-.032-.1534-.004-.2934.0066-.4267l.0507-.2867c.1173-.7733.2373-1.5493.356-2.3306.22-1.5654.4107-3.148.5627-4.744.1493-1.596.26-3.208.2853-4.8254.0027-1.6-.0093-3.2773-.4707-4.7426-.1506-.4454-.3973-.8494-.672-.9654-.2826-.1026-.6906.0014-.9.2867-.4626.6493-.5386 1.72-.5026 2.5907l.0026.0426-.0026.024c-.2854 3.1334-.6267 6.212-1.0774 9.2387-.232 1.5133-.48 3.012-.86 4.492-.0946.3707-.208.7413-.3386 1.1107-.1774.3693-.2267.7453-.756 1.152-.4574.2186-.7974-.0307-.9787-.216-.1947-.204-.2733-.4054-.364-.6027-.1533-.392-.2307-.7707-.2987-1.1493-.424-3.0054-.2493-5.8974-.08-8.7334.056-1.4253.404-2.836.216-4.0866-.0893-.62-.332-1.2427-.744-1.5187-.2026-.1333-.4333-.164-.6826-.1053-.1254.0386-.2494.0826-.372.1573-.1214.0987-.096.0613-.188.2293-.5187 1.0894-.7707 2.4667-1.0507 3.7134-.2627 1.2746-.4867 2.544-.6907 3.7973a125.1998 125.1998 0 0 0-.5426 3.708c-.1654 1.2093-.248 2.4347-.4867 3.6253-.2253 1.1867-.5 2.3414-.932 3.448-.1093.2774-.2347.5507-.3853.82-.1867.2507-.292.5774-.8027.7334-.292.08-.5453-.1187-.676-.2854-.112-.172-.1667-.336-.2107-.4933-.068-.3067-.096-.6013-.1066-.888-.0294-2.272.308-4.356.42-6.368.064-.9973.1093-1.984-.0067-2.896-.06-.428-.1973-.9293-.4413-1.0293-.3574-.1427-.8187-.2174-1.0867-.024-.5893.4253-.7947 1.4-.9867 2.1813-.1893.8253-.2746 1.6427-.4253 2.4307-.5547 3.1546-1.1427 5.8626-1.428 8.076-.1293 1.1066-.1827 2.1053-.0427 2.9373.1854.8067.456 1.5213.612 2.0813.1574.532.2827.956.3827 1.2894.0813.2906.116.4413.104.4453-.0133.004-.0747-.1387-.1827-.4213-.1173-.3267-.268-.7414-.456-1.2627-.1853-.568-.464-1.2173-.692-2.088-.1733-.8733-.1413-1.8907-.0333-3.0147.2413-2.2533.78-4.9426 1.292-8.1026.1413-.7854.2173-1.6214.4-2.4694.096-.4253.1893-.8573.3507-1.292.1693-.42.3506-.9053.836-1.224.516-.3213 1.0893-.204 1.5733-.02.6253.3574.648.9574.7573 1.428.136.9974.0934 1.9934.04 3.0107-.0973 2.024-.4133 4.1507-.368 6.304.012.2653.0427.5253.096.7627.0574.26.1894.3586.1627.3093.0467.0093.2507-.2213.3653-.432.1254-.228.2387-.476.3387-.7347.3973-1.04.6627-2.1773.8747-3.332.224-1.1533.2973-2.3546.46-3.592.1533-1.228.328-2.472.5253-3.7333.1987-1.2613.4173-2.54.6773-3.832.296-1.3.484-2.584 1.116-3.936.0387-.136.3134-.44.468-.5133.168-.1014.3587-.176.56-.2347.4067-.108.9054-.048 1.2747.2013.7333.516.9653 1.3227 1.088 2.036.1107.732.0733 1.4734-.0093 2.1787-.0787.684-.136 1.3813-.1854 2.08-.1626 2.7907-.316 5.712.0934 8.5413.0613.344.1373.692.256.9867.06.1387.1306.2853.1986.3467l.0654.052.0053.0013.0027.004c-.024.3133-.004.0667-.0094.128l-.0546-.1147c.0693-.056.2826-.4226.3853-.732.1173-.3333.224-.6786.3133-1.0333.364-1.4227.608-2.912.836-4.4093.4427-3 .7814-6.076 1.0627-9.188v.0653c-.016-1.0253-.0333-2.1.6747-3.1627.4133-.524 1.1586-.808 1.86-.544.6933.324.9493.944 1.144 1.4587.5293 1.7067.512 3.3787.516 5.0293-.0267 1.6507-.14 3.2787-.292 4.8907-.1547 1.612-.348 3.2053-.572 4.7827-.1214.7866-.2427 1.572-.364 2.3533-.0987.496-.0747.512.0733.6587.16.1213.4693.1026.62-.024.1707-.1147.1907-.3467.2267-.78l.1026-1.1574c.0774-.772.1534-1.54.2307-2.304.168-1.5293.372-3.0413.6333-4.5306.2707-1.488.58-2.9587 1.0694-4.3827.2493-.7093.536-1.4133.9706-2.068.2214-.324.4787-.6467.856-.884.3854-.2213.808-.4227 1.3867-.2013.5467.3.6413.8066.7267 1.176.0573.388.0826.7666.0706 1.132-.012.7346-.0906 1.444-.18 2.1453-.1853 1.3987-.4346 2.756-.6706 4.0947-.4347 2.656-1.0347 5.3-.8267 7.728.0333.2973.112.5706.2133.812.0614.1213.1294.2226.172.2666l-.032.0587-.0146-.0067.0093-.088c.28-.3453.4787-1.0133.6533-1.564.3454-1.164.624-2.3413.9227-3.488.3-1.148.6027-2.276.9987-3.3626.2-.5427.4186-1.0774.728-1.5827.168-.248.3333-.5027.6066-.7067.1214-.1093.3014-.1866.476-.236.208-.032.376-.0266.512-.0013.3147.0133.7387.288.8427.6173.1293.312.1573.604.1707.884.028.5614-.0347 1.088-.0867 1.6107-.1253 1.0387-.3187 2.0293-.508 2.9907-.388 1.9173-.8093 3.728-1.3187 5.3786-.9973 3.308-1.9973 6.1054-2.8226 8.388-.8307 2.2814-1.504 4.04-1.972 5.2294a673.6408 673.6408 0 0 0-.544 1.348c-.128.3013-.2.4533-.212.4493"/>
  <path fill="#f03658" d="M102.3021 186.164c2.5334 8.9387 7.4818 22.7493 12.8026 37.308.7698 2.1053 3.6969 2.2427 4.6546.2173l13.0454-27.58s-3.1411-22.6573-2.875-21.8573c.2662.8-26.9141 2.932-26.9141 2.932l-.7135 8.98"/>
  <path fill="#fcfdfd" d="M131.6812 181.7187c.0297.1106-1.6208.588-4.2025 1.5733-2.5823.9813-6.0746 2.5413-9.6776 4.72-3.599 2.1893-6.5975 4.5653-8.6604 6.4013-2.0672 1.8347-3.2547 3.076-3.3386 2.9987-.0349-.032.2266-.3747.7312-.9693.4995-.5974 1.274-1.4187 2.274-2.3894 1.9963-1.9453 4.987-4.4173 8.6334-6.6346 3.6505-2.208 7.2249-3.7174 9.8718-4.588 1.3244-.4387 2.4104-.7467 3.1719-.912.7599-.1734 1.185-.2467 1.1968-.2"/>
  <path fill="#1d2a30" d="M136.852 188.596c-.0693.0493-.9573-.9973-2.176-2.848-1.22-1.848-2.7301-4.5293-4.0301-7.6573-1.2948-3.132-2.1235-6.0947-2.5688-8.264-.4484-2.1707-.5615-3.5387-.4782-3.5507.1058-.0187.3896 1.316.9552 3.4373.5636 2.12 1.4558 5.02 2.7339 8.112 1.2828 3.088 2.704 5.7667 3.8067 7.6654 1.1013 1.8986 1.844 3.0426 1.7573 3.1053M145.5533 66.4453c-4.5626 7.376-5.532 16.916-2.548 25.0787 1.34 3.6613 3.4627 7.2813 3.0747 11.168-.3987 3.9813-3.4187 7.7427-2.352 11.5947.632 2.2773 2.5867 3.9666 3.336 6.208.88 2.628-.0373 5.4746-.456 8.2173-1.0667 6.9827 1.1653 14.004 1.7187 21.048.5533 7.044-1.348 15.288-7.6294 18.36-1.9106.9333-4.4053 1.2027-5.9933-.2213-2.016-1.808-1.4545-5.0547-.9027-7.724 5.52-26.6907-11.5325-52.6907-7.6382-79.6747.6238-4.3253 3.04-11.664 6.1541-14.6907 3.1135-3.0253 11.7255-2.6573 14.6721.5347"/>
  <path fill="#365462" d="M119.2901 143.796c-.0557-.0453.8006-.96 2.0016-2.852 1.1952-1.8787 2.6979-4.812 3.4834-8.7307.3806-1.9573.5494-4.1373.4104-6.4853-.1022-2.3467-.4328-4.8733-.2746-7.5747.0552-1.352.3443-2.728.7651-4.0866.4724-1.34 1.0865-2.6547 1.8308-3.916 1.4921-2.5227 3.3823-4.872 5.111-7.3814 1.7289-2.5013 3.1635-5.1506 3.6289-7.9493.4666-2.7987-.0374-5.5707-.4654-8.1813-.4626-2.6134-.78-5.1867-.5893-7.5774a25.494 25.494 0 0 1 1.2787-6.5066c1.3093-3.86 3.2453-6.5947 4.7133-8.2974.7387-.856 1.364-1.476 1.8147-1.8626.4453-.3947.6853-.592.7013-.5734.052.0534-.8987.8694-2.308 2.6094-1.3893 1.736-3.2293 4.472-4.4547 8.2773a25.4983 25.4983 0 0 0-1.1706 6.3853c-.1614 2.3414.1666 4.8214.6453 7.4374.4413 2.6053.9853 5.444.5053 8.3986-.4813 2.9534-1.9773 5.7014-3.7266 8.232-1.7527 2.5414-3.6334 4.8747-5.098 7.336-.7307 1.2294-1.3271 2.4974-1.7886 3.7814-.4062 1.2986-.6926 2.604-.7552 3.916-.1724 2.616.1314 5.1346.2126 7.5093.115 2.3787-.0855 4.6227-.5052 6.608-.8636 3.984-2.461 6.9267-3.7386 8.7813-.6406.9334-1.198 1.612-1.5912 2.0574-.4005.44-.6192.6613-.6364.6453"/>
  <path fill="#365462" d="M106.6432 145.7933c-.0208-.012.1224-.32.4141-.8946.3276-.632.7578-1.464 1.2958-2.5027 1.1157-2.1747 2.787-5.3027 4.4297-9.3427 1.6099-4.0253 3.2068-9.068 3.2557-14.8173a27.3698 27.3698 0 0 0-.3254-4.3747c-.2298-1.48-.5735-2.992-.797-4.5706-.214-1.572-.3166-3.248.1011-4.9027.413-1.6613 1.4563-3.1373 2.7135-4.2813 2.5136-2.284 5.5453-3.7734 7.112-6.448 1.6046-2.6294 1.9589-5.7134 2.3641-8.5507.3468-2.868.8968-5.6293 1.8353-8.056.9074-2.4387 2.1188-4.5573 3.383-6.3613 2.5456-3.624 5.3762-5.9054 7.4122-7.2627 1.0254-.6773 1.856-1.1493 2.44-1.428.5787-.2853.8867-.4267.8974-.404.036.0667-1.1947.6493-3.184 2.0547-1.9694 1.412-4.7107 3.72-7.1615 7.32-1.2183 1.792-2.3823 3.8853-3.247 6.2826-.8973 2.3934-1.4093 5.064-1.7415 7.94-.3934 2.8374-.7194 6.004-2.4178 8.8214-1.6984 2.8786-4.8369 4.4106-7.2198 6.6013-1.201 1.0973-2.1338 2.4293-2.5176 3.944-.3844 1.5133-.3006 3.104-.0954 4.6373.2126 1.5414.55 3.0507.7787 4.564.229 1.5147.327 3.0174.3099 4.4787-.0875 5.8747-1.762 10.9653-3.4418 15-1.7145 4.048-3.4562 7.1467-4.6462 9.2853-.5855 1.012-1.0543 1.824-1.411 2.4414-.3313.5533-.5152.8373-.5365.8266"/>
  <path fill="#1d2a30" d="M547.7947 522.5479c-.0134-.0067.0666-.1974.2333-.5624.1853-.3991.436-.9324.7547-1.611.6413-1.424 1.476-3.5797 2.22-6.448 1.4693-5.7333 1.9813-14.4948-.1894-24.901-1.008-5.211-2.6333-10.8-4.6173-16.7255-1.956-5.936-4.2253-12.235-6.08-19.0427-1.8347-6.7922-3.2813-14.1652-3.0027-21.8946.2814-7.744 2.5747-15.4734 5.0947-23.168 2.5173-7.708 5.1187-15.2414 5.8987-22.8187.8826-7.564-.7374-14.9893-4.184-21.0733-3.3374-6.148-7.536-11.408-10.6774-16.856-3.192-5.428-5.188-11.0107-6.4186-16.2027-2.3854-10.468-1.5494-19.2907-.4067-25.1027 1.2373-5.8453 2.6187-8.8666 2.6187-8.8666.0133.0053-.0387.2053-.1547.5893-.1307.42-.3053.9827-.5293 1.7-.4627 1.492-1.0614 3.7227-1.6294 6.636-1.0426 5.8-1.7813 14.5613.6507 24.9147 1.256 5.1346 3.2613 10.644 6.44 15.9973 3.136 5.384 7.3533 10.62 10.7573 16.8413 3.5174 6.152 5.2094 13.82 4.3134 21.5014-.7854 7.7066-3.408 15.2893-5.9174 22.9866-2.5213 7.688-4.7866 15.3374-5.0733 22.9507-.2853 7.6107 1.1267 14.9132 2.9307 21.672 1.824 6.7761 4.068 13.0761 5.9986 19.0281 1.96 5.9439 3.5654 11.5772 4.5427 16.8251 2.1133 10.4844 1.5107 19.3333-.0627 25.0855-.7973 2.8812-1.684 5.0317-2.3773 6.44-.348.6666-.6227 1.189-.828 1.5802-.1907.3542-.2933.5334-.3053.525"/>
  <path fill="#f03658" d="M537.5133 352.8227s-6.3813-20.4054 5.0654-32.3534c.4013-.4186 1.1093-.2213 1.2133.3507.6107 3.3693 1.3747 13.6333-6.2787 32.0027"/>
  <path fill="#1d2a30" d="M541.336 327.2693c.108.02-.0747 1.456-.4293 3.764-.42 2.592-.912 5.636-1.456 9-.5334 3.3627-1.0174 6.4067-1.428 8.9987-.3507 2.304-.5587 3.7347-.676 3.7253-.104-.008-.092-1.46.1146-3.7933.2107-2.332.6227-5.5387 1.2-9.06.576-3.52 1.1894-6.6893 1.6894-8.9747.4986-2.284.8773-3.6826.9853-3.66"/>
  <path fill="#f03658" d="M545.0093 400.9467s3.9027-21.0187 19.6067-26.2267c.5507-.1827 1.084.324.908.8773-1.036 3.264-5.16 12.6934-20.5147 25.3494"/>
  <path fill="#1d2a30" d="M560.3387 380.1493c.084.0694-.748 1.252-2.14 3.1267-1.584 2.0947-3.444 4.556-5.4974 7.2733-2.044 2.724-3.8946 5.1867-5.4706 7.2867-1.3867 1.8733-2.24 3.0387-2.3387 2.976-.088-.0547.6-1.3333 1.8747-3.2987 1.276-1.9613 3.14-4.6053 5.2973-7.4466 2.156-2.8427 4.1813-5.3574 5.6907-7.1427 1.508-1.7867 2.4986-2.8453 2.584-2.7747"/>
  <path fill="#f03658" d="M540.764 453.6803s-2.3693-21.247 11.1453-30.7923c.4747-.3333 1.1307-.004 1.124.576-.044 3.424-1.252 13.6464-12.2693 30.2163"/>
  <path fill="#1d2a30" d="M549.392 429.3267c.1027.0413-.3507 1.416-1.1387 3.6133-.9066 2.4641-1.9706 5.3584-3.1466 8.5573-1.1667 3.1986-2.2214 6.0948-3.12 8.56-.7827 2.1958-1.26 3.5588-1.3734 3.5282-.1-.0282.188-1.4506.836-3.7016.652-2.2479 1.668-5.3188 2.908-8.6642 1.2347-3.3462 2.444-6.341 3.3694-8.4877.924-2.1467 1.564-3.448 1.6653-3.4053"/>
  <path fill="#f03658" d="M552.5947 506.7213s-1.6094-21.3172 12.24-30.3718c.4866-.3178 1.1306.036 1.1026.6156-.1653 3.4204-1.74 13.5912-13.3426 29.7562"/>
  <path fill="#1d2a30" d="M562.0893 482.6921c.1014.0454-.4013 1.4027-1.2693 3.5704-.9933 2.4323-2.1613 5.287-3.4507 8.4386-1.2786 3.1562-2.4373 6.0125-3.4226 8.4458-.86 2.1651-1.388 3.5104-1.5 3.4744-.0974-.0306.24-1.4426.9693-3.6692.7307-2.224 1.856-5.2548 3.2147-8.5548 1.3546-3.2989 2.6706-6.2478 3.672-8.3598 1.0013-2.1135 1.6853-3.3906 1.7866-3.3454"/>
  <path fill="#f03658" d="M528.3427 334.8933s-18.9507-9.8946-19.3214-26.4373c-.0133-.58.6254-.9413 1.104-.6107 2.816 1.9467 10.6214 8.656 18.2174 27.048"/>
  <path fill="#1d2a30" d="M512.956 314.1373c.0907-.0613.9773 1.0827 2.36 2.964 1.54 2.128 3.3467 4.6267 5.3427 7.388 2.004 2.7534 3.8173 5.2454 5.3613 7.368 1.3853 1.8747 2.248 3.032 2.1587 3.108-.0787.068-1.0987-.9653-2.6027-2.7586-1.5013-1.7974-3.4827-4.3534-5.5653-7.2507-2.0867-2.8933-3.896-5.568-5.16-7.5333-1.264-1.968-1.9867-3.2227-1.8947-3.2854"/>
  <path fill="#f03658" d="M548.692 378.716s-19.516-8.728-20.892-25.2173c-.048-.5774.568-.9774 1.0667-.676 2.9293 1.7733 11.1266 7.996 19.8253 25.8933"/>
  <path fill="#1d2a30" d="M532.0733 358.9333c.0867-.068 1.0414 1.0187 2.536 2.8134 1.6654 2.0306 3.6214 4.416 5.7814 7.0493 2.1666 2.628 4.128 5.004 5.7986 7.0293 1.496 1.7867 2.428 2.8907 2.344 2.972-.0746.072-1.156-.8973-2.7666-2.596-1.608-1.7026-3.7387-4.1346-5.996-6.8986-2.256-2.7614-4.2267-5.3214-5.6067-7.208-1.3813-1.8854-2.18-3.096-2.0907-3.1614"/>
  <path fill="#f03658" d="M537.4627 427.596s-13.4-16.6587-7.1147-31.964c.22-.5373.952-.612 1.256-.1173 1.8013 2.9133 6.264 12.1866 5.8587 32.0813"/>
  <path fill="#1d2a30" d="M531.6773 402.4147c.108-.02.464 1.3826.976 3.6613.5574 2.5667 1.2134 5.58 1.936 8.9093.732 3.3254 1.396 6.3347 1.9614 8.8987.5173 2.272.8453 3.6787.732 3.7133-.0974.0294-.62-1.3253-1.28-3.5733-.656-2.2467-1.4467-5.3813-2.1947-8.8707-.752-3.488-1.3387-6.6626-1.7107-8.9706-.3706-2.308-.5293-3.748-.42-3.768"/>
  <path fill="#f03658" d="M550.736 485.1172s-19.368-9.0547-20.4667-25.5625c-.0373-.5802.5867-.9683 1.0774-.6599 2.9013 1.8224 10.992 8.1823 19.3893 26.2224"/>
  <path fill="#1d2a30" d="M534.4507 465.0573c.0893-.0641 1.0253 1.0386 2.4893 2.8572 1.632 2.06 3.5467 4.4751 5.6613 7.1454 2.124 2.663 4.044 5.0734 5.68 7.1256 1.4667 1.8129 2.38 2.9306 2.2947 3.0118-.076.071-1.1413-.917-2.7227-2.6442-1.58-1.7266-3.6693-4.1943-5.8786-6.9968-2.2107-2.799-4.136-5.3923-5.4854-7.3006-1.3493-1.9088-2.1266-3.1317-2.0386-3.1984M589.312 401.0613c.0187.0014.0267.1614.0253.472-.0093.3707-.0213.82-.0333 1.3654a5748.174 5748.174 0 0 0-.2293 5.184c-.2507 4.5586-.5987 10.9133-1.0147 18.5133l-.0013.0173-.0054.0267c-1.3813 7.736-5.3213 16.3105-10.6146 24.6345-3.8814 6.1334-7.9507 11.7094-11.4614 16.8948-3.532 5.1708-6.5133 9.9599-8.592 14.2042-2.092 4.2369-3.308 7.8796-4.02 10.4238-.34 1.2762-.596 2.272-.7426 2.9548-.16.6786-.256 1.0334-.284 1.0282-.028-.0058.0173-.3683.1253-1.059.096-.6948.304-1.7052.6-3.0016.6227-2.5837 1.768-6.2864 3.812-10.5932 2.032-4.3104 4.9853-9.165 8.4907-14.3692 3.4866-5.2213 7.5346-10.8068 11.396-16.9078 5.2653-8.2844 9.184-16.7282 10.6173-24.3402l-.0053.044c.5346-7.5946.9813-13.9426 1.3-18.496.176-2.16.3146-3.8906.4186-5.1706.0547-.544.1-.9907.1374-1.36.036-.3067.064-.4667.0813-.4654"/>
  <path fill="#f03658" d="M577.7813 449.6839s8.2014-19.7439-2.116-32.6772c-.3613-.4534-1.084-.32-1.24.2386-.9133 3.3014-2.604 13.4534 3.356 32.4386"/>
  <path fill="#1d2a30" d="M576.2867 423.8893c.1106-.0106.36 1.416.6506 3.736.2907 2.3187.6147 5.5334.8707 9.0919.256 3.5573.376 6.7896.3747 9.1297-.0054 2.3427-.1267 3.7891-.2307 3.788-.116-.0016-.1947-1.4428-.3347-3.7698-.176-2.6198-.3813-5.6943-.608-9.0916-.2373-3.3988-.452-6.4748-.636-9.0962-.144-2.3293-.196-3.776-.0866-3.788"/>
  <path fill="#bc283b" d="M577.7813 449.6839c-3.3693-10.7344-4.2933-18.6452-4.2946-24.0906-.0014-4.1853.5413-6.9133.9386-8.348.092-.3293.3814-.512.6774-.512.2053 0 .4146.088.5626.2734 3.98 4.9893 5.204 10.992 5.2067 16.4826.0027 7.0544-2.0093 13.2654-2.788 15.4039.0547-.6505.096-1.7.0987-3.0463.0013-2.3401-.1187-5.5724-.3747-9.1297-.256-3.5585-.58-6.7732-.8707-9.0919-.2893-2.3106-.5386-3.736-.6493-3.736h-.0013c-.1094.012-.0574 1.4587.0866 3.788.184 2.6214.3987 5.6974.636 9.0962.2267 3.3973.432 6.4718.608 9.0916.1094 1.8204.1814 3.0989.2627 3.5698-.0627.1635-.0987.249-.0987.249"/>
  <path fill="#161c1e" d="M577.88 449.435c-.0813-.471-.1533-1.7495-.2627-3.57-.176-2.6197-.3813-5.6942-.608-9.0915-.2373-3.3988-.452-6.4748-.636-9.0962-.144-2.3293-.196-3.776-.0866-3.788h.0013c.1107 0 .36 1.4254.6493 3.736.2907 2.3187.6147 5.5334.8707 9.0919.256 3.5573.376 6.7896.3747 9.1297-.0027 1.3463-.044 2.3958-.0987 3.0463-.0827.2281-.152.411-.204.5417"/>
  <path fill="#f03658" d="M552.3747 497.2625s6.576-20.3437-4.7574-32.3985c-.3986-.4239-1.1066-.2323-1.216.3387-.644 3.3624-1.504 13.6197 5.9734 32.0598"/>
  <path fill="#1d2a30" d="M548.796 471.6735c.108-.0204.4733 1.3828.9507 3.6702.4773 2.288 1.06 5.4642 1.604 8.9896.544 3.5266.9253 6.7386 1.1146 9.0719.184 2.335.18 3.787.0774 3.7932-.1174.0084-.312-1.4224-.64-3.7301-.3867-2.5964-.8414-5.6443-1.3427-9.0136-.5133-3.3667-.9747-6.4146-1.3707-9.012-.3333-2.312-.5026-3.7479-.3933-3.7692"/>
  <path fill="#bc283b" d="M552.3747 497.2625c-5.228-12.8932-6.38-21.7865-6.38-27.1198 0-2.2932.2133-3.9282.4066-4.94.068-.359.3747-.5678.692-.5678.1867 0 .376.0719.524.2291 5.2467 5.5797 6.6547 12.936 6.6547 19.2281 0 5.6814-1.1493 10.4959-1.6587 12.3516.0014-.6516-.0426-1.7-.148-3.0385-.1893-2.3333-.5706-5.5453-1.1146-9.0719-.544-3.5254-1.1267-6.7016-1.604-8.9896-.4734-2.2718-.8374-3.6702-.948-3.6702h-.0027c-.1093.0213.06 1.4572.3933 3.7692.396 2.5974.8574 5.6453 1.3707 9.012.5013 3.3693.956 6.4172 1.3427 9.0136.256 1.8025.432 3.0702.552 3.5344-.0507.1708-.08.2598-.08.2598"/>
  <path fill="#161c1e" d="M552.4547 497.0027c-.12-.4642-.296-1.7319-.552-3.5344-.3867-2.5964-.8414-5.6443-1.3427-9.0136-.5133-3.3667-.9747-6.4146-1.3707-9.012-.3333-2.312-.5026-3.7479-.3933-3.7692h.0027c.1106 0 .4746 1.3984.948 3.6702.4773 2.288 1.06 5.4642 1.604 8.9896.544 3.5266.9253 6.7386 1.1146 9.0719.1054 1.3385.1494 2.387.148 3.0385-.064.2366-.1186.423-.1586.559"/>
  <path fill="#f03658" d="M588.2267 425.556s17.5146-12.2613 15.748-28.712c-.0627-.5773-.744-.852-1.1747-.4627-2.5427 2.2947-9.416 9.9547-14.5733 29.1747"/>
  <path fill="#bc283b" d="M588.2267 425.556c5.1573-19.22 12.0306-26.88 14.5733-29.1747.1373-.1253.3027-.1826.464-.1826.34 0 .668.2533.7107.6453.084.788.124 1.5653.124 2.332.0066 15.264-15.872 26.38-15.872 26.38"/>
  <path fill="#1d2a30" d="M600.8053 402.9867c.0987.0493-.4546 1.3893-1.4546 3.5013-1 2.1133-2.4494 5-4.1454 8.1373-1.6906 3.1427-3.3253 5.932-4.5813 7.908-1.26 1.9734-2.14 3.1307-2.2253 3.0734-.0974-.064.608-1.324 1.74-3.3614 1.2573-2.304 2.732-5.0106 4.364-8 1.6226-2.9946 3.092-5.7053 4.344-8.016 1.128-2.044 1.8586-3.2906 1.9586-3.2426"/>
  <path fill="#f03658" d="M559.4373 477.0948s21.1254-3.2948 26.7827-18.8427c.1987-.5453-.292-1.0922-.8507-.9324-3.2906.9402-12.8373 4.7907-25.932 19.7751"/>
  <path fill="#bc283b" d="M559.4373 477.0948c13.0947-14.9844 22.6414-18.835 25.932-19.775a.7123.7123 0 0 1 .1987-.0291c.3867 0 .6973.3265.6973.7109a.7326.7326 0 0 1-.0453.2505c-4.9507 13.6078-21.7507 17.8291-25.8667 18.6703a26.6173 26.6173 0 0 1-.836.1588c-.052.0095-.08.0136-.08.0136"/>
  <path fill="#1d2a30" d="M580.6707 462.3719c.068.0869-1.02 1.0453-2.8494 2.5026-1.8266 1.4572-4.4 3.4083-7.3026 5.4802-2.904 2.076-5.5987 3.8625-7.5974 5.0813-2 1.217-3.2986 1.8681-3.3506 1.7785-.06-.1009 1.1293-.9197 3.0413-2.252 2.144-1.5156 4.66-3.2932 7.4413-5.2584 2.776-1.9749 5.2907-3.7604 7.4294-5.2828 1.9146-1.3385 3.1213-2.1374 3.188-2.0494"/>
  <path fill="#365462" d="m539.2867 515.9693-6.1627 41.4734h38.4013l-4.9786-41.4734h-27.26"/>
  <path fill="#1d2a30" d="M568.0827 528.8197c0 .2215-6.9347.4-15.4854.4-8.5533 0-15.4853-.1785-15.4853-.4 0-.2197 6.932-.4 15.4853-.4 8.5507 0 15.4854.1803 15.4854.4M568.8427 532.1197c0 .2204-7.16.4-15.9907.4-8.8347 0-15.9933-.1796-15.9933-.4 0-.2213 7.1586-.3984 15.9933-.3984 8.8307 0 15.9907.1771 15.9907.3984M419.5173 113.696s-.3546.0067-1.0413-.0133c-.6893-.0294-1.712-.0774-3.052.016-2.6613.1493-6.6573.6506-11.3627 2.62-4.652 1.9653-10.0973 5.4386-14.4293 11.2453-2.1493 2.8893-3.944 6.3653-5.0373 10.3053-1.0547 3.9454-1.4107 8.3214-.908 12.8267.568 4.4893 1.9426 9.136 4.4586 13.4027 1.2494 2.1266 2.728 4.1946 4.5387 6.0173 1.7467 1.876 3.8093 3.536 6.1333 4.7987 2.3214 1.256 4.9787 2.048 7.6974 1.9386 2.696-.088 5.4786-1.0386 7.4533-3.0066 1.988-1.9534 2.9693-4.8227 2.9707-7.6854.0146-2.8853-.9854-5.7533-2.704-8.1693-3.4627-4.8653-9.06-8.1387-15.0147-9.9027-6.0133-1.752-12.6173-1.7973-18.9387-.2613-3.1493.82-6.2266 2.0227-9.1213 3.6253-2.892 1.612-5.5227 3.7147-7.8293 6.1427-.5467.6347-1.1694 1.2093-1.656 1.8973l-1.5054 2.032c-.8786 1.4427-1.78 2.8827-2.4546 4.4494-1.4134 3.092-2.4054 6.408-2.9 9.8253-.8947 6.8293-.0667 13.864 2.6933 20.0027 2.6653 6.148 7.2107 11.4253 12.8733 14.6053 2.8254 1.58 5.9494 2.5987 9.1174 2.7707 3.1613.196 6.3133-.6187 8.996-2.16 2.6786-1.5374 4.916-3.848 6.0893-6.632 1.1653-2.7814 1.144-5.956.1373-8.7174-.9906-2.792-2.848-5.176-5.0133-7.0893-2.1787-1.912-4.7213-3.344-7.3747-4.2853-5.3786-1.756-11.108-1.6614-16.232-.2814-5.1373 1.3987-9.7173 4.044-13.3133 7.424-3.5907 3.4-6.1107 7.5707-7.6333 11.8294-3.076 8.584-2.2934 17.2973.3493 23.9546 2.72 6.7147 7.04 11.496 10.9853 14.656 3.9814 3.1827 7.6054 4.9 10.0934 5.8787 1.2533.4773 2.22.816 2.8826 1.0027.6574.2053.9894.328.9894.328s-.3454-.0774-1.0094-.26c-.672-.164-1.6466-.4827-2.9146-.94-2.5107-.94-6.1747-2.6267-10.2107-5.7987-3.9987-3.1507-8.3893-7.9427-11.1773-14.7213-2.7094-6.7267-3.5414-15.5427-.4507-24.2654 1.5307-4.3266 4.0773-8.5786 7.728-12.0533 3.652-3.4493 8.3013-6.1533 13.532-7.5907 5.2173-1.416 11.052-1.5346 16.5787.26 2.7333.964 5.3413 2.428 7.5893 4.392 2.2333 1.9654 4.16 4.424 5.204 7.344 1.0587 2.8907 1.092 6.2454-.1387 9.1854-1.2346 2.94-3.576 5.3533-6.3586 6.9546-2.7854 1.6054-6.0734 2.4587-9.364 2.2574-3.2854-.176-6.5107-1.2294-9.412-2.848-5.8107-3.2587-10.452-8.6494-13.176-14.9227-2.816-6.2613-3.66-13.42-2.7467-20.3787.5027-3.48 1.5133-6.8613 2.9573-10.0173.6894-1.5987 1.6094-3.0707 2.508-4.544l1.54-2.0773c.4987-.7027 1.1334-1.2907 1.6934-1.9387 2.3573-2.4827 5.0466-4.6253 7.996-6.268 2.952-1.6333 6.0866-2.856 9.2933-3.688 6.4373-1.56 13.1573-1.508 19.2893.2853 6.0747 1.812 11.768 5.1307 15.3534 10.1734 1.776 2.5 2.828 5.5173 2.8053 8.536-.004 2.996-1.0387 6.032-3.1667 8.1186-2.1133 2.0947-5.0466 3.0787-7.8626 3.1654-2.844.1066-5.608-.7267-7.9894-2.0254-2.3906-1.3053-4.488-3.0066-6.2626-4.92-1.8374-1.8613-3.3374-3.968-4.6-6.1346-2.544-4.3414-3.9227-9.06-4.4854-13.6134-.4933-4.5706-.1133-9.0053.972-13.0013 1.124-3.9893 2.9627-7.5067 5.1507-10.4213 4.4147-5.852 9.9333-9.3187 14.6387-11.2614 4.756-1.9466 8.7853-2.4053 11.46-2.5093 1.3453-.072 2.372 0 3.06.052.688.044 1.0386.084 1.0386.084"/>
  <path fill="#f03658" d="M277.1 391.3h186.948V247.1107H277.1Z"/>
  <path fill="#f03658" d="m277.1 247.1107 34.5307 32.2066H495.408l-31.36-32.2066H277.1"/>
  <path fill="#1d2a30" d="M277.1 247.1107c3.3733-.0067 80.588-.1467 186.948-.3414h.144l.1.104c10.016 10.2827 20.408 20.9534 31.0413 31.8707l.3227.3307.576.5893h-.824c-75.3587-.0573-142.2413-.1067-183.7773-.1373h-.0827l-.06-.0574c-21.6067-20.332-33.2533-31.292-34.388-32.3586 1.1427 1.0546 12.8867 11.9133 34.6733 32.0533l-.1426-.056c41.536-.0307 108.4186-.0813 183.7773-.1387l-.2493.5894-.3227-.3307c-10.6293-10.92-21.02-21.5933-31.032-31.88l.244.1027c-106.36-.1934-183.5773-.3347-186.948-.34M333.252 313.5987c-1.9787.004-3.784 1.78-3.8187 3.7586-.0333 1.9774 1.7094 3.816 3.6867 3.888 1.976.0707 3.848-1.636 3.956-3.612.1093-1.9746-1.5627-3.8786-3.5373-4.024M377.3933 313.5987c-1.9773.004-3.784 1.78-3.8173 3.7586-.0347 1.9774 1.708 3.816 3.6853 3.888 1.9774.0707 3.848-1.636 3.956-3.612.1094-1.9746-1.5626-3.8786-3.536-4.024M377.6773 348.1133c-.2013.0827-.4946-3.608-3.7013-8.288-1.5747-2.3213-3.932-4.7813-7.0613-6.776-3.1107-1.9946-7.0614-3.432-11.3294-3.5866-4.2733-.0787-8.296 1.1386-11.512 2.96-3.2346 1.82-5.724 4.148-7.424 6.38-3.456 4.496-3.9533 8.1653-4.148 8.072-.024-.0054.0147-.2214.108-.6307.1134-.4027.2-1.0253.4894-1.7707.4826-1.5213 1.4626-3.6533 3.1586-5.968 1.6867-2.316 4.1987-4.74 7.5-6.6386 3.2827-1.9014 7.4267-3.1814 11.8467-3.0974 4.4173.16 8.4827 1.664 11.6547 3.7414 3.1946 2.0773 5.568 4.6346 7.124 7.04 1.568 2.4026 2.4293 4.5866 2.828 6.132.2493.7613.3013 1.3866.392 1.7946.072.4134.0973.6334.0746.636"/>
  <path fill="#841d29" d="M464.048 290.6147h-36.652c-.0453-5.6387-.1-9.5187-.1587-11.0014 11.884.008 24.1814.0174 36.8107.0267v10.9747"/>
  <path fill="#151717" d="M464.048 279.64c-12.6293-.0093-24.9267-.0187-36.8107-.0267-.004-.1133-.0093-.212-.0133-.296h36.824v.3227"/>
  <path fill="#841d29" d="M426.9707 290.6147H310.5853L277.524 248.696l27.48 24.672c2.052 1.9307 4.212 3.964 6.484 6.1013l.06.0574h.0827c28.4293.0213 68.7306.0506 115.4986.0866-.0586 1.4827-.1133 5.3627-.1586 11.0014"/>
  <path fill="#151717" d="M427.1293 279.6133c-46.768-.036-87.0693-.0653-115.4986-.0866h-.0827l-.06-.0574c-2.272-2.1373-4.432-4.1706-6.484-6.1013l6.6267 5.9493h115.512c-.004.084-.0094.1827-.0134.296"/>
  <path fill="#1d2a30" d="M427.184 390.9693c-.1933 0-.348-25.08-.348-56.0106 0-30.9414.1547-56.016.348-56.016.1907 0 .3467 25.0746.3467 56.016 0 30.9306-.156 56.0106-.3467 56.0106"/>
  <path fill="#f8f8f9" d="M456.5373 376.9107h-16.4786v-18.628h16.4786v18.628"/>
  <path fill="#f03658" d="m277.1 247.1107-38.38 32.2066h38.38v-32.2066"/>
  <path fill="#a02232" d="M277.1 279.3173h-38.38l38.38-32.2066v32.2066"/>
  <path fill="#f03658" d="M254.62 557.0839h214.9453v-165.784H254.62Z"/>
  <path fill="#bc283b" d="M469.5653 557.0839H254.62V391.3h214.9453V557.0839"/>
  <path fill="#1d2a30" d="M415.7107 555.9135c-.1907 0-.3467-36.9536-.3467-82.5255 0-45.5907.156-82.536.3467-82.536.1933 0 .348 36.9453.348 82.536 0 45.5719-.1547 82.5255-.348 82.5255"/>
  <path fill="#f8f8f9" d="M451.34 537.977h-16.4773v-18.6275H451.34v18.6276"/>
  <path fill="#1d2a30" d="M320.1947 391.7267v35.376h24.4133v-35.376h-24.4133M320.1947 521.2172v35.3734h24.4133v-35.3734h-24.4133M467.692 391.3c0 .012-.188.024-.5507.0347-.396.0093-.932.0213-1.6146.036-1.456.016-3.5414.036-6.2094.0653-5.4266.0253-13.2186.0627-22.8306.1093-19.3094.0254-45.9267.0614-75.3267.1-29.408-.0386-56.028-.0746-75.3387-.1-9.612-.0466-17.4026-.084-22.8293-.1093-2.6667-.0293-4.752-.0493-6.208-.0653a802.0286 802.0286 0 0 1-1.6133-.036c-.364-.0107-.5507-.0227-.5507-.0347s.1867-.0227.5507-.0347c.396-.0093.9306-.02 1.6133-.036 1.456-.0133 3.5413-.036 6.208-.064 5.4267-.0266 13.2173-.064 22.8293-.1106 19.3107-.0267 45.9307-.0627 75.3387-.104 29.4.0413 56.0173.0773 75.3267.104 9.612.0466 17.404.084 22.8306.1106 2.668.028 4.7534.0507 6.2094.064.6826.016 1.2186.0267 1.6146.036.3627.012.5507.0227.5507.0347M99.3203 104.2653l-23.4058-5.752.173-.0266c-5.1474 3.2826-12.1198 5.932-20.2036 6.0573-4.0214-.0147-8.2751-.4973-12.5199-1.828-4.2405-1.3213-8.4113-3.512-12.201-6.468-7.5827-5.8653-13.4865-15.2653-14.7614-26.084-.6505-5.3747-.2152-11.0253 1.4572-16.436 1.7037-5.3947 4.6423-10.508 8.5996-14.812 2.0056-2.2747 4.3687-4.1627 6.7785-5.9067 1.2658-.7813 2.5131-1.5933 3.8172-2.28l1.9912-.9573.9911-.4773 1.0313-.3774c5.4536-2.1146 11.2578-2.9333 16.8282-2.5626 5.577.3586 10.9181 1.9186 15.5901 4.3773 4.6801 2.4533 8.691 5.784 11.8416 9.5653 3.1573 3.784 5.453 8.012 6.9136 12.2814 1.4588 4.2746 2.1233 8.5746 2.1619 12.6373.048 8.1613-2.5026 15.1627-5.6067 20.2747l.002-.212a82007.6965 82007.6965 0 0 1 10.5219 18.9866c-.7506-1.296-4.1526-7.164-10.8875-18.78l-.0604-.104.063-.108c3.0266-5.0853 5.4927-12.0106 5.401-20.0546-.0599-4.004-.7353-8.2334-2.1885-12.4334-1.4536-4.1946-3.726-8.344-6.8411-12.0506-3.1073-3.708-7.0568-6.9667-11.6563-9.364-4.5912-2.4014-9.8328-3.9227-15.3041-4.2654-5.4661-.356-11.1543.4547-16.4985 2.5307l-1.0104.3693-.9724.4694-1.9506.94c-1.2776.6733-2.5 1.4706-3.7405 2.236-2.361 1.712-4.6776 3.5613-6.6433 5.792-3.8802 4.2186-6.7619 9.2293-8.4354 14.516-1.6426 5.3-2.0765 10.8426-1.4453 16.1146 1.2344 10.6107 7.003 19.848 14.436 25.636 3.715 2.9147 7.8061 5.084 11.9719 6.4 4.1702 1.3254 8.3546 1.8187 12.3172 1.8547 7.965-.0827 14.8593-2.648 19.9765-5.8507l.0823-.052.0901.024c14.3432 3.8054 21.7588 5.772 23.2963 6.18"/>
  <path fill="#f03658" d="m52.0443 48.0413 1.2385 19.5507c.101 1.5987 1.3781 2.8707 2.977 2.9653 1.6871.1014 3.1563-1.1386 3.3418-2.8173l2.1708-19.6493c.164-1.488-1.0125-2.784-2.5093-2.7627l-4.7688.0667c-1.4235.02-2.5396 1.2266-2.45 2.6466M61.4421 81.5547c-.8306 2.5013-3.5312 3.8546-6.0317 3.0253-2.5016-.8307-3.8563-3.5307-3.0255-6.032.8302-2.5013 3.5312-3.856 6.0318-3.0253 2.5016.8293 3.8557 3.5306 3.0254 6.032"/>
</svg>
